<mxfile host="app.diagrams.net" agent="Mozilla/5.0 (Windows NT 10.0; Win64; x64) AppleWebKit/537.36 (KHTML, like Gecko) Chrome/140.0.0.0 Safari/537.36" version="28.2.3">
  <diagram name="Page-1" id="48y4NVIk7CXHrmGBpPsR">
    <mxGraphModel grid="1" page="1" gridSize="10" guides="1" tooltips="1" connect="1" arrows="1" fold="1" pageScale="1" pageWidth="850" pageHeight="1100" math="0" shadow="0">
      <root>
        <mxCell id="0" />
        <mxCell id="1" parent="0" />
        <mxCell id="title" value="&lt;div&gt;My Meetings System&amp;nbsp;&lt;/div&gt;&lt;div&gt;[System]&lt;/div&gt;" style="text;html=1;fontSize=14;fontStyle=1;align=center;verticalAlign=middle;" vertex="1" parent="1">
          <mxGeometry x="440" y="90" width="310" height="36" as="geometry" />
        </mxCell>
        <mxCell id="api_sub" value="&lt;font style=&quot;font-size: 14px;&quot;&gt;&lt;b&gt;My Meetings API&lt;/b&gt;&lt;/font&gt;" style="text;html=1;fontSize=12;align=center;" vertex="1" parent="1">
          <mxGeometry x="450" y="320" width="270" height="38" as="geometry" />
        </mxCell>
        <mxCell id="spa" value="&lt;div&gt;&lt;font style=&quot;font-size: 18px; color: rgb(255, 255, 255);&quot;&gt;&lt;b&gt;SPA&lt;/b&gt;&amp;nbsp;&lt;/font&gt;&lt;/div&gt;&lt;div&gt;&lt;font style=&quot;color: rgb(255, 255, 255);&quot;&gt;&lt;i&gt;[ReactJS]&lt;/i&gt;&amp;nbsp;&lt;/font&gt;&lt;/div&gt;&lt;div&gt;&lt;font style=&quot;color: rgb(255, 255, 255);&quot;&gt;&lt;br&gt;&lt;/font&gt;&lt;/div&gt;&lt;div&gt;&lt;font style=&quot;color: rgb(255, 255, 255);&quot;&gt;&lt;br&gt;&lt;/font&gt;&lt;/div&gt;&lt;div&gt;&lt;font style=&quot;color: rgb(255, 255, 255);&quot;&gt;GUI for the application&lt;/font&gt;&lt;/div&gt;" style="rounded=1;whiteSpace=wrap;html=1;fillColor=light-dark(#3F90C7,#315A85);strokeColor=#36393d;fontSize=12;align=center;" vertex="1" parent="1">
          <mxGeometry x="665" y="150" width="140" height="100" as="geometry" />
        </mxCell>
        <mxCell id="api" value="&lt;div&gt;&lt;font style=&quot;color: rgb(0, 0, 0);&quot;&gt;&lt;font style=&quot;font-size: 18px;&quot;&gt;&lt;b style=&quot;&quot;&gt;API&lt;/b&gt;&lt;/font&gt;&lt;i style=&quot;&quot;&gt;&lt;font style=&quot;font-size: 18px;&quot;&gt;&lt;b&gt;&amp;nbsp;&lt;/b&gt;&lt;/font&gt;&lt;/i&gt;&lt;/font&gt;&lt;/div&gt;&lt;div&gt;&lt;i&gt;&lt;font style=&quot;color: rgb(0, 0, 0);&quot;&gt;[.NET Core API]&lt;/font&gt;&lt;/i&gt;&lt;/div&gt;" style="rounded=1;whiteSpace=wrap;html=1;fillColor=#6fa8dc;strokeColor=default;fontSize=13;fontColor=#ffffff;align=center;" vertex="1" parent="1">
          <mxGeometry x="635" y="358" width="200" height="72" as="geometry" />
        </mxCell>
        <mxCell id="m_reg" value="&lt;div&gt;&lt;b&gt;Registrations&lt;/b&gt;&lt;/div&gt;&lt;div&gt;&amp;nbsp;[.NET Libraries]&lt;/div&gt;" style="rounded=1;whiteSpace=wrap;html=1;fillColor=#9fc5e8;strokeColor=#3d85c6;fontSize=12;align=center;" vertex="1" parent="1">
          <mxGeometry x="220" y="530" width="140" height="64" as="geometry" />
        </mxCell>
        <mxCell id="m_ua" value="&lt;div&gt;&lt;b&gt;User Access&amp;nbsp;&lt;/b&gt;&lt;/div&gt;&lt;div&gt;[.NET Libraries]&lt;/div&gt;" style="rounded=1;whiteSpace=wrap;html=1;fillColor=#9fc5e8;strokeColor=#3d85c6;fontSize=12;align=center;" vertex="1" parent="1">
          <mxGeometry x="430" y="530" width="140" height="64" as="geometry" />
        </mxCell>
        <mxCell id="m_meet" value="&lt;div&gt;&lt;b&gt;Meetings&amp;nbsp;&lt;/b&gt;&lt;/div&gt;&lt;div&gt;[.NET Libraries]&lt;/div&gt;" style="rounded=1;whiteSpace=wrap;html=1;fillColor=#9fc5e8;strokeColor=#3d85c6;fontSize=12;align=center;" vertex="1" parent="1">
          <mxGeometry x="665" y="530" width="140" height="64" as="geometry" />
        </mxCell>
        <mxCell id="m_admin" value="&lt;div&gt;&lt;b&gt;Administration&amp;nbsp;&lt;/b&gt;&lt;/div&gt;&lt;div&gt;[.NET Libraries]&lt;/div&gt;" style="rounded=1;whiteSpace=wrap;html=1;fillColor=#9fc5e8;strokeColor=#3d85c6;fontSize=12;align=center;" vertex="1" parent="1">
          <mxGeometry x="880" y="530" width="160" height="64" as="geometry" />
        </mxCell>
        <mxCell id="m_pay" value="&lt;div&gt;&lt;b&gt;Payments&amp;nbsp;&lt;/b&gt;&lt;/div&gt;&lt;div&gt;[.NET Libraries]&lt;/div&gt;" style="rounded=1;whiteSpace=wrap;html=1;fillColor=#9fc5e8;strokeColor=#3d85c6;fontSize=12;align=center;" vertex="1" parent="1">
          <mxGeometry x="1080" y="530" width="140" height="64" as="geometry" />
        </mxCell>
        <mxCell id="d_reg" value="&lt;b&gt;Registrations data &lt;/b&gt;[schema]" style="shape=cylinder;whiteSpace=wrap;html=1;fillColor=#d9e1f2;strokeColor=#6d9eeb;fontSize=11;align=center;" vertex="1" parent="1">
          <mxGeometry x="140" y="810" width="120" height="100" as="geometry" />
        </mxCell>
        <mxCell id="d_ua" value="&lt;b&gt;User Access data&lt;/b&gt; [schema]" style="shape=cylinder;whiteSpace=wrap;html=1;fillColor=#d9e1f2;strokeColor=#6d9eeb;fontSize=11;align=center;" vertex="1" parent="1">
          <mxGeometry x="300" y="810" width="120" height="100" as="geometry" />
        </mxCell>
        <mxCell id="d_meet" value="&lt;div&gt;&lt;b&gt;Meetings data&lt;/b&gt;&amp;nbsp;&lt;/div&gt;&lt;div&gt;[schema]&lt;/div&gt;" style="shape=cylinder;whiteSpace=wrap;html=1;fillColor=#d9e1f2;strokeColor=#6d9eeb;fontSize=11;align=center;" vertex="1" parent="1">
          <mxGeometry x="440" y="810" width="120" height="100" as="geometry" />
        </mxCell>
        <mxCell id="d_admin" value="&lt;b&gt;Administration data &lt;/b&gt;[schema]" style="shape=cylinder;whiteSpace=wrap;html=1;fillColor=#d9e1f2;strokeColor=#6d9eeb;fontSize=11;align=center;" vertex="1" parent="1">
          <mxGeometry x="600" y="810" width="140" height="100" as="geometry" />
        </mxCell>
        <mxCell id="d_pay" value="&lt;b&gt;Payments data &lt;/b&gt;[schema]" style="shape=cylinder;whiteSpace=wrap;html=1;fillColor=#d9e1f2;strokeColor=#6d9eeb;fontSize=11;align=center;" vertex="1" parent="1">
          <mxGeometry x="780" y="810" width="120" height="100" as="geometry" />
        </mxCell>
        <mxCell id="bus" value="&lt;div&gt;&lt;b&gt;Events Bus&amp;nbsp;&lt;/b&gt;&lt;/div&gt;&lt;div&gt;[In memory]&lt;/div&gt;" style="shape=cylinder;whiteSpace=wrap;html=1;fillColor=#f6e1a8;strokeColor=#c9a227;fontSize=11;align=center;" vertex="1" parent="1">
          <mxGeometry x="1060" y="810" width="110" height="90" as="geometry" />
        </mxCell>
        <mxCell id="e_spa_api" value="Uses [HTTP]" style="endArrow=block;html=1;align=center;verticalAlign=middle;entryX=0.5;entryY=0;entryDx=0;entryDy=0;exitX=0.5;exitY=1;exitDx=0;exitDy=0;" edge="1" parent="1" source="spa" target="api">
          <mxGeometry relative="1" as="geometry">
            <mxPoint x="1175" y="423.13725490196066" as="sourcePoint" />
          </mxGeometry>
        </mxCell>
        <mxCell id="e_api_reg" value="Uses" style="endArrow=block;html=1;align=center;entryX=0.799;entryY=0.021;entryDx=0;entryDy=0;entryPerimeter=0;" edge="1" parent="1" source="api" target="m_reg">
          <mxGeometry relative="1" as="geometry" />
        </mxCell>
        <mxCell id="e_api_ua" value="Uses" style="endArrow=block;html=1;entryX=0.864;entryY=-0.026;entryDx=0;entryDy=0;entryPerimeter=0;" edge="1" parent="1" source="api" target="m_ua">
          <mxGeometry relative="1" as="geometry" />
        </mxCell>
        <mxCell id="e_api_meet" value="Uses" style="endArrow=block;html=1;entryX=0.5;entryY=0;entryDx=0;entryDy=0;" edge="1" parent="1" source="api" target="m_meet">
          <mxGeometry relative="1" as="geometry" />
        </mxCell>
        <mxCell id="e_api_admin" value="Uses" style="endArrow=block;html=1;entryX=0.309;entryY=-0.018;entryDx=0;entryDy=0;entryPerimeter=0;" edge="1" parent="1" source="api" target="m_admin">
          <mxGeometry relative="1" as="geometry" />
        </mxCell>
        <mxCell id="e_api_pay" value="Uses" style="endArrow=block;html=1;entryX=0.046;entryY=-0.003;entryDx=0;entryDy=0;entryPerimeter=0;" edge="1" parent="1" source="api" target="m_pay">
          <mxGeometry relative="1" as="geometry" />
        </mxCell>
        <mxCell id="e_reg_db" value="Store / retrieve" style="endArrow=block;html=1;fontSize=10;entryX=0.432;entryY=-0.013;entryDx=0;entryDy=0;entryPerimeter=0;" edge="1" parent="1" source="m_reg" target="d_reg">
          <mxGeometry x="0.283" y="-9" relative="1" as="geometry">
            <Array as="points">
              <mxPoint x="150" y="560" />
              <mxPoint x="150" y="810" />
            </Array>
            <mxPoint as="offset" />
          </mxGeometry>
        </mxCell>
        <mxCell id="e_ua_db" value="Store / retrieve" style="endArrow=block;html=1;fontSize=10;" edge="1" parent="1" source="m_ua" target="d_ua">
          <mxGeometry x="0.2631" y="-1" relative="1" as="geometry">
            <mxPoint as="offset" />
          </mxGeometry>
        </mxCell>
        <mxCell id="e_meet_db" value="Store / retrieve" style="endArrow=block;html=1;fontSize=10;" edge="1" parent="1" source="m_meet" target="d_meet">
          <mxGeometry x="0.2706" y="-2" relative="1" as="geometry">
            <mxPoint as="offset" />
          </mxGeometry>
        </mxCell>
        <mxCell id="e_admin_db" value="Store / retrieve" style="endArrow=block;html=1;fontSize=10;" edge="1" parent="1" source="m_admin" target="d_admin">
          <mxGeometry x="-0.1798" y="-4" relative="1" as="geometry">
            <mxPoint as="offset" />
          </mxGeometry>
        </mxCell>
        <mxCell id="e_pay_db" value="Store / retrieve" style="endArrow=block;html=1;fontSize=10;entryX=0.944;entryY=0.117;entryDx=0;entryDy=0;entryPerimeter=0;" edge="1" parent="1" source="m_pay" target="d_pay">
          <mxGeometry x="-0.7155" y="5" relative="1" as="geometry">
            <mxPoint x="1100" y="750" as="targetPoint" />
            <mxPoint as="offset" />
          </mxGeometry>
        </mxCell>
        <mxCell id="e_reg_bus" value="&lt;div&gt;Publishes event to&amp;nbsp;&lt;/div&gt;&lt;div&gt;/ subscribes&lt;/div&gt;" style="endArrow=block;html=1;fontSize=10;" edge="1" parent="1" source="m_reg" target="bus">
          <mxGeometry x="-0.4037" y="-8" relative="1" as="geometry">
            <mxPoint as="offset" />
          </mxGeometry>
        </mxCell>
        <mxCell id="e_ua_bus" value="&lt;div&gt;Publishes event to&amp;nbsp;&lt;/div&gt;&lt;div&gt;/ subscribes&lt;/div&gt;" style="endArrow=block;html=1;fontSize=10;" edge="1" parent="1" source="m_ua" target="bus">
          <mxGeometry x="-0.6652" y="3" relative="1" as="geometry">
            <mxPoint as="offset" />
          </mxGeometry>
        </mxCell>
        <mxCell id="e_meet_bus" value="&lt;div&gt;Publishes event to&amp;nbsp;&lt;/div&gt;&lt;div&gt;/ subscribes&lt;/div&gt;" style="endArrow=block;html=1;fontSize=10;" edge="1" parent="1" source="m_meet" target="bus">
          <mxGeometry x="-0.5015" y="12" relative="1" as="geometry">
            <mxPoint as="offset" />
          </mxGeometry>
        </mxCell>
        <mxCell id="e_admin_bus" value="&lt;div&gt;Publishes event to&amp;nbsp;&lt;/div&gt;&lt;div&gt;/ subscribes&lt;/div&gt;" style="endArrow=block;html=1;fontSize=10;exitX=0.75;exitY=1;exitDx=0;exitDy=0;" edge="1" parent="1" source="m_admin" target="bus">
          <mxGeometry x="-0.4817" y="1" relative="1" as="geometry">
            <mxPoint as="offset" />
          </mxGeometry>
        </mxCell>
        <mxCell id="e_pay_bus" value="Publishes event to / subscribes" style="endArrow=block;html=1;fontSize=10;" edge="1" parent="1" source="m_pay" target="bus">
          <mxGeometry relative="1" as="geometry">
            <Array as="points">
              <mxPoint x="1230" y="560" />
              <mxPoint x="1230" y="855" />
            </Array>
          </mxGeometry>
        </mxCell>
        <mxCell id="note_left" value="(service libraries)" style="text;html=1;fontSize=11;strokeColor=none;fillColor=none;" vertex="1" parent="1">
          <mxGeometry x="190" y="500" width="105" height="18" as="geometry" />
        </mxCell>
        <mxCell id="B5GNb587Tpf-H_gQbmZY-2" value="Uses" style="endArrow=block;html=1;align=center;entryX=0;entryY=0.5;entryDx=0;entryDy=0;exitX=1;exitY=0.5;exitDx=0;exitDy=0;" edge="1" parent="1" source="m_reg" target="m_ua">
          <mxGeometry relative="1" as="geometry">
            <mxPoint x="663" y="370" as="sourcePoint" />
            <mxPoint x="370" y="472" as="targetPoint" />
          </mxGeometry>
        </mxCell>
        <mxCell id="B5GNb587Tpf-H_gQbmZY-12" value="" style="endArrow=none;dashed=1;html=1;rounded=0;" edge="1" parent="1">
          <mxGeometry width="50" height="50" relative="1" as="geometry">
            <mxPoint x="40" y="1000" as="sourcePoint" />
            <mxPoint x="1380" y="1000" as="targetPoint" />
          </mxGeometry>
        </mxCell>
        <mxCell id="B5GNb587Tpf-H_gQbmZY-13" value="" style="endArrow=none;dashed=1;html=1;rounded=0;" edge="1" parent="1">
          <mxGeometry width="50" height="50" relative="1" as="geometry">
            <mxPoint x="40" y="1000" as="sourcePoint" />
            <mxPoint x="40" y="78.46153846153847" as="targetPoint" />
          </mxGeometry>
        </mxCell>
        <mxCell id="B5GNb587Tpf-H_gQbmZY-14" value="" style="endArrow=none;dashed=1;html=1;rounded=0;" edge="1" parent="1">
          <mxGeometry width="50" height="50" relative="1" as="geometry">
            <mxPoint x="40" y="80" as="sourcePoint" />
            <mxPoint x="1380" y="80" as="targetPoint" />
          </mxGeometry>
        </mxCell>
        <mxCell id="B5GNb587Tpf-H_gQbmZY-15" value="" style="endArrow=none;dashed=1;html=1;rounded=0;" edge="1" parent="1">
          <mxGeometry width="50" height="50" relative="1" as="geometry">
            <mxPoint x="1380" y="1001.5384615384614" as="sourcePoint" />
            <mxPoint x="1380" y="80" as="targetPoint" />
          </mxGeometry>
        </mxCell>
        <mxCell id="B5GNb587Tpf-H_gQbmZY-16" value="" style="endArrow=none;dashed=1;html=1;rounded=0;" edge="1" parent="1">
          <mxGeometry width="50" height="50" relative="1" as="geometry">
            <mxPoint x="1340" y="960" as="sourcePoint" />
            <mxPoint x="1340" y="320" as="targetPoint" />
          </mxGeometry>
        </mxCell>
        <mxCell id="B5GNb587Tpf-H_gQbmZY-17" value="" style="endArrow=none;dashed=1;html=1;rounded=0;" edge="1" parent="1">
          <mxGeometry width="50" height="50" relative="1" as="geometry">
            <mxPoint x="80" y="960" as="sourcePoint" />
            <mxPoint x="1341.25" y="960" as="targetPoint" />
          </mxGeometry>
        </mxCell>
        <mxCell id="B5GNb587Tpf-H_gQbmZY-18" value="" style="endArrow=none;dashed=1;html=1;rounded=0;" edge="1" parent="1">
          <mxGeometry width="50" height="50" relative="1" as="geometry">
            <mxPoint x="80" y="960" as="sourcePoint" />
            <mxPoint x="80" y="320" as="targetPoint" />
          </mxGeometry>
        </mxCell>
        <mxCell id="B5GNb587Tpf-H_gQbmZY-19" value="" style="endArrow=none;dashed=1;html=1;rounded=0;" edge="1" parent="1">
          <mxGeometry width="50" height="50" relative="1" as="geometry">
            <mxPoint x="80" y="320" as="sourcePoint" />
            <mxPoint x="1341.25" y="320" as="targetPoint" />
          </mxGeometry>
        </mxCell>
        <mxCell id="B5GNb587Tpf-H_gQbmZY-20" value="" style="endArrow=none;dashed=1;html=1;rounded=0;" edge="1" parent="1">
          <mxGeometry width="50" height="50" relative="1" as="geometry">
            <mxPoint x="120" y="790" as="sourcePoint" />
            <mxPoint x="910" y="790" as="targetPoint" />
          </mxGeometry>
        </mxCell>
        <mxCell id="B5GNb587Tpf-H_gQbmZY-21" value="" style="endArrow=none;dashed=1;html=1;rounded=0;" edge="1" parent="1">
          <mxGeometry width="50" height="50" relative="1" as="geometry">
            <mxPoint x="120" y="930" as="sourcePoint" />
            <mxPoint x="910" y="930" as="targetPoint" />
          </mxGeometry>
        </mxCell>
        <mxCell id="B5GNb587Tpf-H_gQbmZY-22" value="" style="endArrow=none;dashed=1;html=1;rounded=0;" edge="1" parent="1">
          <mxGeometry width="50" height="50" relative="1" as="geometry">
            <mxPoint x="120" y="930" as="sourcePoint" />
            <mxPoint x="120" y="790" as="targetPoint" />
          </mxGeometry>
        </mxCell>
        <mxCell id="B5GNb587Tpf-H_gQbmZY-23" value="" style="endArrow=none;dashed=1;html=1;rounded=0;" edge="1" parent="1">
          <mxGeometry width="50" height="50" relative="1" as="geometry">
            <mxPoint x="910" y="930" as="sourcePoint" />
            <mxPoint x="910" y="790" as="targetPoint" />
          </mxGeometry>
        </mxCell>
        <mxCell id="BiUdJknU8LATcOOY5-os-1" value="Legend" style="text;fontStyle=1;fontSize=18;fontColor=#000000;" vertex="1" parent="1">
          <mxGeometry x="1180" y="1020" width="120" height="25" as="geometry" />
        </mxCell>
        <mxCell id="BiUdJknU8LATcOOY5-os-2" value="person" style="shape=rectangle;fillColor=#1A3560;fontColor=#FFFFFF;align=left;verticalAlign=middle;" vertex="1" parent="1">
          <mxGeometry x="1180" y="1060" width="120" height="25" as="geometry" />
        </mxCell>
        <mxCell id="BiUdJknU8LATcOOY5-os-3" value="system" style="shape=rectangle;fillColor=#2F5D8A;fontColor=#FFFFFF;align=left;verticalAlign=middle;" vertex="1" parent="1">
          <mxGeometry x="1180" y="1085" width="120" height="25" as="geometry" />
        </mxCell>
        <mxCell id="BiUdJknU8LATcOOY5-os-4" value="container" style="shape=rectangle;fillColor=#4B7DA1;fontColor=#FFFFFF;align=left;verticalAlign=middle;" vertex="1" parent="1">
          <mxGeometry x="1180" y="1110" width="120" height="25" as="geometry" />
        </mxCell>
        <mxCell id="BiUdJknU8LATcOOY5-os-5" value="component" style="shape=rectangle;fillColor=#89A9C0;fontColor=#EDEDED;align=left;verticalAlign=middle;" vertex="1" parent="1">
          <mxGeometry x="1180" y="1135" width="120" height="25" as="geometry" />
        </mxCell>
        <mxCell id="BiUdJknU8LATcOOY5-os-6" value="external person" style="shape=rectangle;fillColor=#666666;fontColor=#FFFFFF;align=left;verticalAlign=middle;" vertex="1" parent="1">
          <mxGeometry x="1180" y="1160" width="120" height="25" as="geometry" />
        </mxCell>
        <mxCell id="BiUdJknU8LATcOOY5-os-7" value="external system" style="shape=rectangle;fillColor=#777777;fontColor=#FFFFFF;align=left;verticalAlign=middle;" vertex="1" parent="1">
          <mxGeometry x="1180" y="1185" width="120" height="25" as="geometry" />
        </mxCell>
        <mxCell id="BiUdJknU8LATcOOY5-os-8" value="external container" style="shape=rectangle;fillColor=#AAAAAA;fontColor=#F6F6F6;align=left;verticalAlign=middle;" vertex="1" parent="1">
          <mxGeometry x="1180" y="1210" width="120" height="25" as="geometry" />
        </mxCell>
        <mxCell id="BiUdJknU8LATcOOY5-os-9" value="external component" style="shape=rectangle;fillColor=#DDDDDD;fontColor=#C2C2C2;align=left;verticalAlign=middle;" vertex="1" parent="1">
          <mxGeometry x="1180" y="1235" width="120" height="25" as="geometry" />
        </mxCell>
      </root>
    </mxGraphModel>
  </diagram>
</mxfile>
